<mxfile host="app.diagrams.net" agent="Mozilla/5.0 (Windows NT 10.0; Win64; x64) AppleWebKit/537.36 (KHTML, like Gecko) Chrome/129.0.0.0 Safari/537.36" version="24.7.17">
  <diagram id="C5RBs43oDa-KdzZeNtuy" name="Page-1">
    <mxGraphModel dx="2385" dy="1645" grid="1" gridSize="10" guides="1" tooltips="1" connect="1" arrows="1" fold="1" page="0" pageScale="1" pageWidth="827" pageHeight="1169" math="0" shadow="0">
      <root>
        <mxCell id="WIyWlLk6GJQsqaUBKTNV-0" />
        <mxCell id="WIyWlLk6GJQsqaUBKTNV-1" parent="WIyWlLk6GJQsqaUBKTNV-0" />
        <mxCell id="CRsF88WKp_3KR7oHD52K-22" style="edgeStyle=orthogonalEdgeStyle;rounded=0;orthogonalLoop=1;jettySize=auto;html=1;exitX=0.5;exitY=1;exitDx=0;exitDy=0;entryX=0.5;entryY=0;entryDx=0;entryDy=0;" edge="1" parent="WIyWlLk6GJQsqaUBKTNV-1" source="CRsF88WKp_3KR7oHD52K-1" target="CRsF88WKp_3KR7oHD52K-21">
          <mxGeometry relative="1" as="geometry" />
        </mxCell>
        <mxCell id="CRsF88WKp_3KR7oHD52K-1" value="sign up/ sign in" style="rounded=1;whiteSpace=wrap;html=1;" vertex="1" parent="WIyWlLk6GJQsqaUBKTNV-1">
          <mxGeometry x="360" y="-280" width="120" height="60" as="geometry" />
        </mxCell>
        <mxCell id="CRsF88WKp_3KR7oHD52K-7" style="edgeStyle=orthogonalEdgeStyle;rounded=0;orthogonalLoop=1;jettySize=auto;html=1;exitX=0;exitY=0.5;exitDx=0;exitDy=0;entryX=0.5;entryY=0;entryDx=0;entryDy=0;" edge="1" parent="WIyWlLk6GJQsqaUBKTNV-1" source="CRsF88WKp_3KR7oHD52K-3" target="CRsF88WKp_3KR7oHD52K-12">
          <mxGeometry relative="1" as="geometry">
            <mxPoint x="300" y="140" as="targetPoint" />
          </mxGeometry>
        </mxCell>
        <mxCell id="CRsF88WKp_3KR7oHD52K-8" value="group" style="edgeLabel;html=1;align=center;verticalAlign=middle;resizable=0;points=[];" vertex="1" connectable="0" parent="CRsF88WKp_3KR7oHD52K-7">
          <mxGeometry x="-0.3795" relative="1" as="geometry">
            <mxPoint x="10" y="-10" as="offset" />
          </mxGeometry>
        </mxCell>
        <mxCell id="CRsF88WKp_3KR7oHD52K-9" style="edgeStyle=orthogonalEdgeStyle;rounded=0;orthogonalLoop=1;jettySize=auto;html=1;exitX=1;exitY=0.5;exitDx=0;exitDy=0;entryX=0.5;entryY=0;entryDx=0;entryDy=0;" edge="1" parent="WIyWlLk6GJQsqaUBKTNV-1" source="CRsF88WKp_3KR7oHD52K-3" target="CRsF88WKp_3KR7oHD52K-5">
          <mxGeometry relative="1" as="geometry" />
        </mxCell>
        <mxCell id="CRsF88WKp_3KR7oHD52K-10" value="solo" style="edgeLabel;html=1;align=center;verticalAlign=middle;resizable=0;points=[];" vertex="1" connectable="0" parent="CRsF88WKp_3KR7oHD52K-9">
          <mxGeometry x="-0.6974" y="-2" relative="1" as="geometry">
            <mxPoint x="10" y="-12" as="offset" />
          </mxGeometry>
        </mxCell>
        <mxCell id="CRsF88WKp_3KR7oHD52K-3" value="group/ solo?" style="rhombus;whiteSpace=wrap;html=1;" vertex="1" parent="WIyWlLk6GJQsqaUBKTNV-1">
          <mxGeometry x="350" y="20" width="140" height="80" as="geometry" />
        </mxCell>
        <mxCell id="CRsF88WKp_3KR7oHD52K-34" style="edgeStyle=orthogonalEdgeStyle;rounded=0;orthogonalLoop=1;jettySize=auto;html=1;exitX=0.5;exitY=1;exitDx=0;exitDy=0;entryX=1;entryY=0.5;entryDx=0;entryDy=0;" edge="1" parent="WIyWlLk6GJQsqaUBKTNV-1" source="CRsF88WKp_3KR7oHD52K-5" target="CRsF88WKp_3KR7oHD52K-30">
          <mxGeometry relative="1" as="geometry" />
        </mxCell>
        <mxCell id="CRsF88WKp_3KR7oHD52K-5" value="sign up" style="rounded=1;whiteSpace=wrap;html=1;" vertex="1" parent="WIyWlLk6GJQsqaUBKTNV-1">
          <mxGeometry x="490" y="140" width="120" height="60" as="geometry" />
        </mxCell>
        <mxCell id="CRsF88WKp_3KR7oHD52K-15" style="edgeStyle=orthogonalEdgeStyle;rounded=0;orthogonalLoop=1;jettySize=auto;html=1;exitX=0;exitY=0.5;exitDx=0;exitDy=0;entryX=0.5;entryY=0;entryDx=0;entryDy=0;" edge="1" parent="WIyWlLk6GJQsqaUBKTNV-1" source="CRsF88WKp_3KR7oHD52K-12" target="CRsF88WKp_3KR7oHD52K-13">
          <mxGeometry relative="1" as="geometry" />
        </mxCell>
        <mxCell id="CRsF88WKp_3KR7oHD52K-17" value="create" style="edgeLabel;html=1;align=center;verticalAlign=middle;resizable=0;points=[];" vertex="1" connectable="0" parent="CRsF88WKp_3KR7oHD52K-15">
          <mxGeometry x="0.1455" y="-2" relative="1" as="geometry">
            <mxPoint as="offset" />
          </mxGeometry>
        </mxCell>
        <mxCell id="CRsF88WKp_3KR7oHD52K-16" style="edgeStyle=orthogonalEdgeStyle;rounded=0;orthogonalLoop=1;jettySize=auto;html=1;exitX=1;exitY=0.5;exitDx=0;exitDy=0;entryX=0.5;entryY=0;entryDx=0;entryDy=0;" edge="1" parent="WIyWlLk6GJQsqaUBKTNV-1" source="CRsF88WKp_3KR7oHD52K-12" target="CRsF88WKp_3KR7oHD52K-19">
          <mxGeometry relative="1" as="geometry">
            <mxPoint x="310" y="230" as="targetPoint" />
          </mxGeometry>
        </mxCell>
        <mxCell id="CRsF88WKp_3KR7oHD52K-18" value="join" style="edgeLabel;html=1;align=center;verticalAlign=middle;resizable=0;points=[];" vertex="1" connectable="0" parent="CRsF88WKp_3KR7oHD52K-16">
          <mxGeometry x="0.2" relative="1" as="geometry">
            <mxPoint y="4" as="offset" />
          </mxGeometry>
        </mxCell>
        <mxCell id="CRsF88WKp_3KR7oHD52K-12" value="create/ join?" style="rhombus;whiteSpace=wrap;html=1;" vertex="1" parent="WIyWlLk6GJQsqaUBKTNV-1">
          <mxGeometry x="150" y="100" width="140" height="80" as="geometry" />
        </mxCell>
        <mxCell id="CRsF88WKp_3KR7oHD52K-29" style="edgeStyle=orthogonalEdgeStyle;rounded=0;orthogonalLoop=1;jettySize=auto;html=1;exitX=0.5;exitY=1;exitDx=0;exitDy=0;entryX=0.5;entryY=0;entryDx=0;entryDy=0;" edge="1" parent="WIyWlLk6GJQsqaUBKTNV-1" source="CRsF88WKp_3KR7oHD52K-13" target="CRsF88WKp_3KR7oHD52K-28">
          <mxGeometry relative="1" as="geometry" />
        </mxCell>
        <mxCell id="CRsF88WKp_3KR7oHD52K-13" value="create new group" style="rounded=1;whiteSpace=wrap;html=1;" vertex="1" parent="WIyWlLk6GJQsqaUBKTNV-1">
          <mxGeometry x="70" y="230" width="120" height="60" as="geometry" />
        </mxCell>
        <mxCell id="CRsF88WKp_3KR7oHD52K-26" style="edgeStyle=orthogonalEdgeStyle;rounded=0;orthogonalLoop=1;jettySize=auto;html=1;exitX=0;exitY=0.5;exitDx=0;exitDy=0;entryX=0.5;entryY=0;entryDx=0;entryDy=0;" edge="1" parent="WIyWlLk6GJQsqaUBKTNV-1" source="CRsF88WKp_3KR7oHD52K-19" target="CRsF88WKp_3KR7oHD52K-24">
          <mxGeometry relative="1" as="geometry" />
        </mxCell>
        <mxCell id="CRsF88WKp_3KR7oHD52K-27" style="edgeStyle=orthogonalEdgeStyle;rounded=0;orthogonalLoop=1;jettySize=auto;html=1;exitX=1;exitY=0.5;exitDx=0;exitDy=0;entryX=0.5;entryY=0;entryDx=0;entryDy=0;" edge="1" parent="WIyWlLk6GJQsqaUBKTNV-1" source="CRsF88WKp_3KR7oHD52K-19" target="CRsF88WKp_3KR7oHD52K-25">
          <mxGeometry relative="1" as="geometry" />
        </mxCell>
        <mxCell id="CRsF88WKp_3KR7oHD52K-19" value="private/ public?" style="rhombus;whiteSpace=wrap;html=1;" vertex="1" parent="WIyWlLk6GJQsqaUBKTNV-1">
          <mxGeometry x="240" y="360" width="140" height="80" as="geometry" />
        </mxCell>
        <mxCell id="CRsF88WKp_3KR7oHD52K-38" style="edgeStyle=orthogonalEdgeStyle;rounded=0;orthogonalLoop=1;jettySize=auto;html=1;exitX=0.5;exitY=1;exitDx=0;exitDy=0;entryX=0.5;entryY=0;entryDx=0;entryDy=0;" edge="1" parent="WIyWlLk6GJQsqaUBKTNV-1" source="CRsF88WKp_3KR7oHD52K-21" target="CRsF88WKp_3KR7oHD52K-37">
          <mxGeometry relative="1" as="geometry" />
        </mxCell>
        <mxCell id="CRsF88WKp_3KR7oHD52K-41" style="edgeStyle=orthogonalEdgeStyle;rounded=0;orthogonalLoop=1;jettySize=auto;html=1;exitX=1;exitY=0.5;exitDx=0;exitDy=0;entryX=0.5;entryY=0;entryDx=0;entryDy=0;" edge="1" parent="WIyWlLk6GJQsqaUBKTNV-1" source="CRsF88WKp_3KR7oHD52K-21" target="CRsF88WKp_3KR7oHD52K-40">
          <mxGeometry relative="1" as="geometry" />
        </mxCell>
        <mxCell id="CRsF88WKp_3KR7oHD52K-49" style="edgeStyle=orthogonalEdgeStyle;rounded=0;orthogonalLoop=1;jettySize=auto;html=1;exitX=1;exitY=0.5;exitDx=0;exitDy=0;entryX=0.5;entryY=0;entryDx=0;entryDy=0;" edge="1" parent="WIyWlLk6GJQsqaUBKTNV-1" source="CRsF88WKp_3KR7oHD52K-21" target="CRsF88WKp_3KR7oHD52K-48">
          <mxGeometry relative="1" as="geometry" />
        </mxCell>
        <mxCell id="CRsF88WKp_3KR7oHD52K-67" style="edgeStyle=orthogonalEdgeStyle;rounded=0;orthogonalLoop=1;jettySize=auto;html=1;exitX=0;exitY=0.5;exitDx=0;exitDy=0;entryX=0.5;entryY=0;entryDx=0;entryDy=0;" edge="1" parent="WIyWlLk6GJQsqaUBKTNV-1" source="CRsF88WKp_3KR7oHD52K-21" target="CRsF88WKp_3KR7oHD52K-63">
          <mxGeometry relative="1" as="geometry" />
        </mxCell>
        <mxCell id="CRsF88WKp_3KR7oHD52K-21" value="complete profile" style="rounded=1;whiteSpace=wrap;html=1;" vertex="1" parent="WIyWlLk6GJQsqaUBKTNV-1">
          <mxGeometry x="360" y="-180" width="120" height="60" as="geometry" />
        </mxCell>
        <mxCell id="CRsF88WKp_3KR7oHD52K-32" style="edgeStyle=orthogonalEdgeStyle;rounded=0;orthogonalLoop=1;jettySize=auto;html=1;exitX=0.5;exitY=1;exitDx=0;exitDy=0;entryX=0;entryY=0.5;entryDx=0;entryDy=0;" edge="1" parent="WIyWlLk6GJQsqaUBKTNV-1" source="CRsF88WKp_3KR7oHD52K-24" target="CRsF88WKp_3KR7oHD52K-30">
          <mxGeometry relative="1" as="geometry" />
        </mxCell>
        <mxCell id="CRsF88WKp_3KR7oHD52K-24" value="enter invitation code" style="rounded=1;whiteSpace=wrap;html=1;" vertex="1" parent="WIyWlLk6GJQsqaUBKTNV-1">
          <mxGeometry x="160" y="470" width="120" height="60" as="geometry" />
        </mxCell>
        <mxCell id="CRsF88WKp_3KR7oHD52K-33" style="edgeStyle=orthogonalEdgeStyle;rounded=0;orthogonalLoop=1;jettySize=auto;html=1;exitX=0.5;exitY=1;exitDx=0;exitDy=0;entryX=0.5;entryY=0;entryDx=0;entryDy=0;" edge="1" parent="WIyWlLk6GJQsqaUBKTNV-1" source="CRsF88WKp_3KR7oHD52K-25" target="CRsF88WKp_3KR7oHD52K-30">
          <mxGeometry relative="1" as="geometry" />
        </mxCell>
        <mxCell id="CRsF88WKp_3KR7oHD52K-25" value="join group" style="rounded=1;whiteSpace=wrap;html=1;" vertex="1" parent="WIyWlLk6GJQsqaUBKTNV-1">
          <mxGeometry x="340" y="470" width="120" height="60" as="geometry" />
        </mxCell>
        <mxCell id="CRsF88WKp_3KR7oHD52K-31" style="edgeStyle=orthogonalEdgeStyle;rounded=0;orthogonalLoop=1;jettySize=auto;html=1;exitX=0.5;exitY=1;exitDx=0;exitDy=0;entryX=0;entryY=0.5;entryDx=0;entryDy=0;" edge="1" parent="WIyWlLk6GJQsqaUBKTNV-1" source="CRsF88WKp_3KR7oHD52K-28" target="CRsF88WKp_3KR7oHD52K-30">
          <mxGeometry relative="1" as="geometry" />
        </mxCell>
        <mxCell id="CRsF88WKp_3KR7oHD52K-28" value="share invitation code" style="rounded=1;whiteSpace=wrap;html=1;" vertex="1" parent="WIyWlLk6GJQsqaUBKTNV-1">
          <mxGeometry x="70" y="320" width="120" height="60" as="geometry" />
        </mxCell>
        <mxCell id="CRsF88WKp_3KR7oHD52K-36" style="edgeStyle=orthogonalEdgeStyle;rounded=0;orthogonalLoop=1;jettySize=auto;html=1;exitX=0.5;exitY=1;exitDx=0;exitDy=0;entryX=0.5;entryY=0;entryDx=0;entryDy=0;" edge="1" parent="WIyWlLk6GJQsqaUBKTNV-1" source="CRsF88WKp_3KR7oHD52K-30" target="CRsF88WKp_3KR7oHD52K-35">
          <mxGeometry relative="1" as="geometry" />
        </mxCell>
        <mxCell id="CRsF88WKp_3KR7oHD52K-30" value="system distributes daily verses" style="rounded=1;whiteSpace=wrap;html=1;" vertex="1" parent="WIyWlLk6GJQsqaUBKTNV-1">
          <mxGeometry x="340" y="610" width="120" height="60" as="geometry" />
        </mxCell>
        <mxCell id="CRsF88WKp_3KR7oHD52K-66" style="edgeStyle=orthogonalEdgeStyle;rounded=0;orthogonalLoop=1;jettySize=auto;html=1;exitX=0.5;exitY=1;exitDx=0;exitDy=0;entryX=0.5;entryY=0;entryDx=0;entryDy=0;" edge="1" parent="WIyWlLk6GJQsqaUBKTNV-1" source="CRsF88WKp_3KR7oHD52K-35" target="CRsF88WKp_3KR7oHD52K-65">
          <mxGeometry relative="1" as="geometry" />
        </mxCell>
        <mxCell id="CRsF88WKp_3KR7oHD52K-35" value="user log daily progress" style="rounded=1;whiteSpace=wrap;html=1;" vertex="1" parent="WIyWlLk6GJQsqaUBKTNV-1">
          <mxGeometry x="340" y="710" width="120" height="60" as="geometry" />
        </mxCell>
        <mxCell id="CRsF88WKp_3KR7oHD52K-39" style="edgeStyle=orthogonalEdgeStyle;rounded=0;orthogonalLoop=1;jettySize=auto;html=1;exitX=0.5;exitY=1;exitDx=0;exitDy=0;entryX=0.5;entryY=0;entryDx=0;entryDy=0;" edge="1" parent="WIyWlLk6GJQsqaUBKTNV-1" source="CRsF88WKp_3KR7oHD52K-37" target="CRsF88WKp_3KR7oHD52K-3">
          <mxGeometry relative="1" as="geometry" />
        </mxCell>
        <mxCell id="CRsF88WKp_3KR7oHD52K-37" value="tadarus" style="rounded=1;whiteSpace=wrap;html=1;" vertex="1" parent="WIyWlLk6GJQsqaUBKTNV-1">
          <mxGeometry x="360" y="-80" width="120" height="60" as="geometry" />
        </mxCell>
        <mxCell id="CRsF88WKp_3KR7oHD52K-43" style="edgeStyle=orthogonalEdgeStyle;rounded=0;orthogonalLoop=1;jettySize=auto;html=1;exitX=0.5;exitY=1;exitDx=0;exitDy=0;entryX=0.5;entryY=0;entryDx=0;entryDy=0;" edge="1" parent="WIyWlLk6GJQsqaUBKTNV-1" source="CRsF88WKp_3KR7oHD52K-40" target="CRsF88WKp_3KR7oHD52K-42">
          <mxGeometry relative="1" as="geometry" />
        </mxCell>
        <mxCell id="CRsF88WKp_3KR7oHD52K-40" value="sadaqah" style="rounded=1;whiteSpace=wrap;html=1;" vertex="1" parent="WIyWlLk6GJQsqaUBKTNV-1">
          <mxGeometry x="720" y="-80" width="120" height="60" as="geometry" />
        </mxCell>
        <mxCell id="CRsF88WKp_3KR7oHD52K-75" style="edgeStyle=orthogonalEdgeStyle;rounded=0;orthogonalLoop=1;jettySize=auto;html=1;exitX=0.5;exitY=1;exitDx=0;exitDy=0;entryX=0.5;entryY=0;entryDx=0;entryDy=0;" edge="1" parent="WIyWlLk6GJQsqaUBKTNV-1" source="CRsF88WKp_3KR7oHD52K-42" target="CRsF88WKp_3KR7oHD52K-74">
          <mxGeometry relative="1" as="geometry" />
        </mxCell>
        <mxCell id="CRsF88WKp_3KR7oHD52K-42" value="system fetch sedekahje rawak api" style="rounded=1;whiteSpace=wrap;html=1;" vertex="1" parent="WIyWlLk6GJQsqaUBKTNV-1">
          <mxGeometry x="720" y="30" width="120" height="60" as="geometry" />
        </mxCell>
        <mxCell id="CRsF88WKp_3KR7oHD52K-47" style="edgeStyle=orthogonalEdgeStyle;rounded=0;orthogonalLoop=1;jettySize=auto;html=1;exitX=0.5;exitY=1;exitDx=0;exitDy=0;entryX=0.5;entryY=0;entryDx=0;entryDy=0;" edge="1" parent="WIyWlLk6GJQsqaUBKTNV-1" source="CRsF88WKp_3KR7oHD52K-44" target="CRsF88WKp_3KR7oHD52K-46">
          <mxGeometry relative="1" as="geometry" />
        </mxCell>
        <mxCell id="CRsF88WKp_3KR7oHD52K-44" value="user log donation done" style="rounded=1;whiteSpace=wrap;html=1;" vertex="1" parent="WIyWlLk6GJQsqaUBKTNV-1">
          <mxGeometry x="720" y="250" width="120" height="60" as="geometry" />
        </mxCell>
        <mxCell id="CRsF88WKp_3KR7oHD52K-46" value="system log in daily planner" style="rounded=1;whiteSpace=wrap;html=1;" vertex="1" parent="WIyWlLk6GJQsqaUBKTNV-1">
          <mxGeometry x="720" y="360" width="120" height="60" as="geometry" />
        </mxCell>
        <mxCell id="CRsF88WKp_3KR7oHD52K-53" style="edgeStyle=orthogonalEdgeStyle;rounded=0;orthogonalLoop=1;jettySize=auto;html=1;exitX=0.5;exitY=1;exitDx=0;exitDy=0;entryX=0.5;entryY=0;entryDx=0;entryDy=0;" edge="1" parent="WIyWlLk6GJQsqaUBKTNV-1" source="CRsF88WKp_3KR7oHD52K-48" target="CRsF88WKp_3KR7oHD52K-50">
          <mxGeometry relative="1" as="geometry" />
        </mxCell>
        <mxCell id="CRsF88WKp_3KR7oHD52K-48" value="zakat" style="rounded=1;whiteSpace=wrap;html=1;" vertex="1" parent="WIyWlLk6GJQsqaUBKTNV-1">
          <mxGeometry x="920" y="-80" width="120" height="60" as="geometry" />
        </mxCell>
        <mxCell id="CRsF88WKp_3KR7oHD52K-54" style="edgeStyle=orthogonalEdgeStyle;rounded=0;orthogonalLoop=1;jettySize=auto;html=1;exitX=0.5;exitY=1;exitDx=0;exitDy=0;entryX=0.5;entryY=0;entryDx=0;entryDy=0;" edge="1" parent="WIyWlLk6GJQsqaUBKTNV-1" source="CRsF88WKp_3KR7oHD52K-50" target="CRsF88WKp_3KR7oHD52K-51">
          <mxGeometry relative="1" as="geometry" />
        </mxCell>
        <mxCell id="CRsF88WKp_3KR7oHD52K-50" value="user select state" style="rounded=1;whiteSpace=wrap;html=1;" vertex="1" parent="WIyWlLk6GJQsqaUBKTNV-1">
          <mxGeometry x="920" y="30" width="120" height="60" as="geometry" />
        </mxCell>
        <mxCell id="CRsF88WKp_3KR7oHD52K-55" style="edgeStyle=orthogonalEdgeStyle;rounded=0;orthogonalLoop=1;jettySize=auto;html=1;exitX=0.5;exitY=1;exitDx=0;exitDy=0;entryX=0.5;entryY=0;entryDx=0;entryDy=0;" edge="1" parent="WIyWlLk6GJQsqaUBKTNV-1" source="CRsF88WKp_3KR7oHD52K-51" target="CRsF88WKp_3KR7oHD52K-52">
          <mxGeometry relative="1" as="geometry" />
        </mxCell>
        <mxCell id="CRsF88WKp_3KR7oHD52K-57" style="edgeStyle=orthogonalEdgeStyle;rounded=0;orthogonalLoop=1;jettySize=auto;html=1;exitX=1;exitY=0.5;exitDx=0;exitDy=0;entryX=0.5;entryY=0;entryDx=0;entryDy=0;" edge="1" parent="WIyWlLk6GJQsqaUBKTNV-1" source="CRsF88WKp_3KR7oHD52K-51" target="CRsF88WKp_3KR7oHD52K-56">
          <mxGeometry relative="1" as="geometry" />
        </mxCell>
        <mxCell id="CRsF88WKp_3KR7oHD52K-51" value="system display link to state zakat institution" style="rounded=1;whiteSpace=wrap;html=1;" vertex="1" parent="WIyWlLk6GJQsqaUBKTNV-1">
          <mxGeometry x="920" y="140" width="120" height="60" as="geometry" />
        </mxCell>
        <mxCell id="CRsF88WKp_3KR7oHD52K-59" style="edgeStyle=orthogonalEdgeStyle;rounded=0;orthogonalLoop=1;jettySize=auto;html=1;exitX=0.5;exitY=1;exitDx=0;exitDy=0;entryX=0.5;entryY=0;entryDx=0;entryDy=0;" edge="1" parent="WIyWlLk6GJQsqaUBKTNV-1" source="CRsF88WKp_3KR7oHD52K-52" target="CRsF88WKp_3KR7oHD52K-58">
          <mxGeometry relative="1" as="geometry" />
        </mxCell>
        <mxCell id="CRsF88WKp_3KR7oHD52K-52" value="user pay zakat" style="rounded=1;whiteSpace=wrap;html=1;" vertex="1" parent="WIyWlLk6GJQsqaUBKTNV-1">
          <mxGeometry x="920" y="250" width="120" height="60" as="geometry" />
        </mxCell>
        <mxCell id="CRsF88WKp_3KR7oHD52K-62" style="edgeStyle=orthogonalEdgeStyle;rounded=0;orthogonalLoop=1;jettySize=auto;html=1;exitX=0;exitY=0.5;exitDx=0;exitDy=0;entryX=1;entryY=0.5;entryDx=0;entryDy=0;" edge="1" parent="WIyWlLk6GJQsqaUBKTNV-1" source="CRsF88WKp_3KR7oHD52K-56" target="CRsF88WKp_3KR7oHD52K-52">
          <mxGeometry relative="1" as="geometry" />
        </mxCell>
        <mxCell id="CRsF88WKp_3KR7oHD52K-56" value="user set reminder" style="rounded=1;whiteSpace=wrap;html=1;" vertex="1" parent="WIyWlLk6GJQsqaUBKTNV-1">
          <mxGeometry x="1080" y="250" width="120" height="60" as="geometry" />
        </mxCell>
        <mxCell id="CRsF88WKp_3KR7oHD52K-61" style="edgeStyle=orthogonalEdgeStyle;rounded=0;orthogonalLoop=1;jettySize=auto;html=1;exitX=0.5;exitY=1;exitDx=0;exitDy=0;entryX=0.5;entryY=0;entryDx=0;entryDy=0;" edge="1" parent="WIyWlLk6GJQsqaUBKTNV-1" source="CRsF88WKp_3KR7oHD52K-58" target="CRsF88WKp_3KR7oHD52K-60">
          <mxGeometry relative="1" as="geometry" />
        </mxCell>
        <mxCell id="CRsF88WKp_3KR7oHD52K-58" value="user log zakat done" style="rounded=1;whiteSpace=wrap;html=1;" vertex="1" parent="WIyWlLk6GJQsqaUBKTNV-1">
          <mxGeometry x="920" y="360" width="120" height="60" as="geometry" />
        </mxCell>
        <mxCell id="CRsF88WKp_3KR7oHD52K-60" value="system log in daily planner" style="rounded=1;whiteSpace=wrap;html=1;" vertex="1" parent="WIyWlLk6GJQsqaUBKTNV-1">
          <mxGeometry x="920" y="470" width="120" height="60" as="geometry" />
        </mxCell>
        <mxCell id="CRsF88WKp_3KR7oHD52K-70" style="edgeStyle=orthogonalEdgeStyle;rounded=0;orthogonalLoop=1;jettySize=auto;html=1;exitX=0;exitY=0.5;exitDx=0;exitDy=0;entryX=0.5;entryY=0;entryDx=0;entryDy=0;" edge="1" parent="WIyWlLk6GJQsqaUBKTNV-1" source="CRsF88WKp_3KR7oHD52K-63" target="CRsF88WKp_3KR7oHD52K-69">
          <mxGeometry relative="1" as="geometry" />
        </mxCell>
        <mxCell id="CRsF88WKp_3KR7oHD52K-73" style="edgeStyle=orthogonalEdgeStyle;rounded=0;orthogonalLoop=1;jettySize=auto;html=1;exitX=1;exitY=0.5;exitDx=0;exitDy=0;entryX=0.5;entryY=0;entryDx=0;entryDy=0;" edge="1" parent="WIyWlLk6GJQsqaUBKTNV-1" source="CRsF88WKp_3KR7oHD52K-63" target="CRsF88WKp_3KR7oHD52K-68">
          <mxGeometry relative="1" as="geometry" />
        </mxCell>
        <mxCell id="CRsF88WKp_3KR7oHD52K-63" value="daily planner" style="rounded=1;whiteSpace=wrap;html=1;" vertex="1" parent="WIyWlLk6GJQsqaUBKTNV-1">
          <mxGeometry x="-200" y="-80" width="120" height="60" as="geometry" />
        </mxCell>
        <mxCell id="CRsF88WKp_3KR7oHD52K-65" value="system log in daily planner" style="rounded=1;whiteSpace=wrap;html=1;" vertex="1" parent="WIyWlLk6GJQsqaUBKTNV-1">
          <mxGeometry x="340" y="810" width="120" height="60" as="geometry" />
        </mxCell>
        <mxCell id="CRsF88WKp_3KR7oHD52K-68" value="select template" style="rounded=1;whiteSpace=wrap;html=1;" vertex="1" parent="WIyWlLk6GJQsqaUBKTNV-1">
          <mxGeometry x="-120" y="60" width="120" height="60" as="geometry" />
        </mxCell>
        <mxCell id="CRsF88WKp_3KR7oHD52K-69" value="create daily planner" style="rounded=1;whiteSpace=wrap;html=1;" vertex="1" parent="WIyWlLk6GJQsqaUBKTNV-1">
          <mxGeometry x="-280" y="60" width="120" height="60" as="geometry" />
        </mxCell>
        <mxCell id="CRsF88WKp_3KR7oHD52K-76" style="edgeStyle=orthogonalEdgeStyle;rounded=0;orthogonalLoop=1;jettySize=auto;html=1;exitX=0.5;exitY=1;exitDx=0;exitDy=0;entryX=0.5;entryY=0;entryDx=0;entryDy=0;" edge="1" parent="WIyWlLk6GJQsqaUBKTNV-1" source="CRsF88WKp_3KR7oHD52K-74" target="CRsF88WKp_3KR7oHD52K-44">
          <mxGeometry relative="1" as="geometry" />
        </mxCell>
        <mxCell id="CRsF88WKp_3KR7oHD52K-74" value="system display duitnow qr" style="rounded=1;whiteSpace=wrap;html=1;" vertex="1" parent="WIyWlLk6GJQsqaUBKTNV-1">
          <mxGeometry x="720" y="140" width="120" height="60" as="geometry" />
        </mxCell>
      </root>
    </mxGraphModel>
  </diagram>
</mxfile>
